<svg xmlns="http://www.w3.org/2000/svg" viewBox="0 0 108 108"><defs><style>.cls-1{fill:#ffc007;}</style></defs><title>corp.brand.aerohiveLogo.registered.AI_SOURCE</title><g id="_1.Full_Color" data-name="1.Full_Color"><g id="HexagonBug"><path class="cls-1" d="M53.7,12.22A.35.35,0,0,1,54,12a1.08,1.08,0,0,0-.52.12L39,20.52a1.15,1.15,0,0,0-.51.9V38.58a1.1,1.1,0,0,0,.09.38Z"/><path class="cls-1" d="M54.3,12.22,69.39,39a1.1,1.1,0,0,0,.09-.38V21.42a1.15,1.15,0,0,0-.51-.9l-14.45-8.4A1.08,1.08,0,0,0,54,12,.35.35,0,0,1,54.3,12.22Z"/><path class="cls-1" d="M54,19,42,40.19a.91.91,0,0,0,.33,1.23l11.11,6.46a1.19,1.19,0,0,0,1,0l11.11-6.46A.91.91,0,0,0,66,40.19Z"/></g><g id="Networks.WORDMARK"><path class="cls-1" d="M15.29,95.83V87.07h1.19l3.57,7.69,0,0V87.07h.78v8.76H19.68l-3.59-7.78,0,0v7.76Z"/><path class="cls-1" d="M30.35,87.07v.65H27.14V91H30.2v.66H27.14v3.51h3.29v.66H26.36V87.07Z"/><path class="cls-1" d="M36.83,87.72H34.68v-.65h5.07v.65H37.61v8.11h-.78Z"/><path class="cls-1" d="M48.12,87.07h1l1.77,7.68h0l1.88-7.68h.77l-2.18,8.76h-1L48.63,88h0l-1.81,7.79h-1L43.7,87.07h.82l1.78,7.74h0Z"/><path class="cls-1" d="M60.76,86.9c2.63,0,2.65,2.18,2.65,4.55s0,4.55-2.65,4.55-2.66-2.18-2.66-4.55S58.13,86.9,60.76,86.9Zm0,8.44c1.85,0,1.88-1.56,1.88-3.89s0-3.9-1.88-3.9-1.88,1.57-1.88,3.9S58.91,95.34,60.76,95.34Z"/><path class="cls-1" d="M69.41,91.58v4.25h-.78V87.07h2.42c1.7,0,2.12.56,2.12,2.1,0,1.09-.18,1.82-1.36,2.08v0c1.23.25,1.3.4,1.3,3.53,0,.34.06.68.09,1h-.75c-.07-.25-.11-1.71-.12-2.18s.24-2.07-1.45-2.07Zm0-.65h1.26c1.17,0,1.72-.31,1.72-1.78,0-1.2-.47-1.43-1.39-1.43H69.41Z"/><path class="cls-1" d="M78.49,95.83V87.07h.78v4h0l3.12-4h.93l-3.28,4.09,3.38,4.67h-1L79.3,91.34h0v4.49Z"/><path class="cls-1" d="M91.89,89.29c0-1.08-.29-1.74-1.48-1.74-1,0-1.55.33-1.55,1.36,0,1.3.66,1.34,1.66,2s2.19,1,2.19,2.71A2.07,2.07,0,0,1,90.37,96c-1.72,0-2.48-.92-2.41-2.63h.8c0,1,.08,2,1.65,2a1.36,1.36,0,0,0,1.52-1.55c0-1.19-.79-1.53-2.06-2.3-1.7-1-1.78-1.57-1.79-2.44,0-1.52,1-2.15,2.39-2.15,1.82,0,2.21,1.13,2.21,2.39Z"/></g><g id="AerohiveWordmark"><path d="M22.51,81.83l-.56-4H18.64l-.51,4H15.29l3.13-21.68H22l3.4,21.68Zm-2.34-17.9L19,75.2h2.62Z"/><path d="M26.82,81.83V60.15h7.29v2.7H29.76v6.36h3.88v2.7H29.79v7.18h4.32v2.74Z"/><path d="M42,81.83a18.83,18.83,0,0,1-.43-4.55V75.75a16.73,16.73,0,0,0-.13-2.24A2.05,2.05,0,0,0,41,72.13a1.43,1.43,0,0,0-.94-.28H38.83v10H35.92V60.15h4.75c.37,0,.75,0,1.09,0a2.55,2.55,0,0,1,2.69,2.12,16.49,16.49,0,0,1,.19,3.1c0,.83,0,1.69-.06,2.55a5.22,5.22,0,0,1-.35,1.72A2.43,2.43,0,0,1,42,70.84a2.33,2.33,0,0,1,2,.92c.5.76.53,1.65.53,3.44v2.36a9.44,9.44,0,0,0,.57,4.27Zm-.34-18c0-.46-.12-.71-.31-.86s-.5-.19-1.06-.19H38.86v6.7h1.37c.75,0,1.19-.19,1.38-1a21.23,21.23,0,0,0,.15-3.31C41.76,64.73,41.73,64.27,41.7,63.81Z"/><path d="M55.83,79.52C54.89,82.07,52,82,51.36,82a5.74,5.74,0,0,1-1.85-.27,4,4,0,0,1-2.37-2.64,7,7,0,0,1-.22-2.28V66.05c0-1.94,0-3.81,1.72-5.1a4.81,4.81,0,0,1,3-1,4.6,4.6,0,0,1,2.88.86,3.65,3.65,0,0,1,1,1.17c.62,1.07.65,2.21.65,4.63V77A7.22,7.22,0,0,1,55.83,79.52ZM53.3,65.8A5.22,5.22,0,0,0,53,63.13a1.49,1.49,0,0,0-1.34-.64,2,2,0,0,0-1.06.3c-.79.49-.72,1.38-.72,3V77.41c0,1.16.18,2.27,1.68,2.27,1.88,0,1.79-1.66,1.79-3Z"/><path d="M64.24,81.83V71.76H61.55V81.83H58.64V60.15h2.91V69h2.69V60.15h2.9V81.83Z"/><path d="M69.64,81.83V60.15h2.88V81.83Z"/><path d="M80.71,81.83H77.27L73.89,60.15H76.8l2.25,17.38,2.16-17.38h2.87Z"/><path d="M85.43,81.83V60.15h7.28v2.7H88.36v6.36h3.88v2.7H88.4v7.18h4.31v2.74Z"/><path d="M97.4,80.27a.4.4,0,0,0-.42-.42h0a.47.47,0,0,0,.43-.53.51.51,0,0,0-.55-.57H96v2.17h.49V80h.12c.38,0,.34.22.34.48a.87.87,0,0,0,.07.42h.48A2.53,2.53,0,0,1,97.4,80.27Zm-.73-.56h-.22V79.1h.22c.15,0,.25.08.25.29S96.86,79.71,96.67,79.71Z"/><path d="M96.71,82.08A2.25,2.25,0,1,1,99,79.83,2.25,2.25,0,0,1,96.71,82.08Zm0-4a1.75,1.75,0,1,0,1.75,1.75A1.75,1.75,0,0,0,96.71,78.08Z"/></g></g></svg>