<svg xmlns="http://www.w3.org/2000/svg" viewBox="0 0 144 59.833"><defs><style>.cls-1{fill:#fff;}.cls-2{fill:#ffc007;}</style></defs><title>Artboard 4</title><g id="_2.Full_Color.WHT_ALT" data-name="2.Full_Color.WHT_ALT"><g id="AerohiveWordmark"><path class="cls-1" d="M26.861,38.713l-.454-3.253H23.72l-.414,3.253H21l2.541-17.63h2.906l2.761,17.63Zm-1.9-14.556-.95,9.164h2.127Z"/><path class="cls-1" d="M30.36,38.713V21.083h5.918v2.2H32.747V28.45H35.9v2.2H32.771v5.839h3.507v2.228Z"/><path class="cls-1" d="M42.684,38.713a15.286,15.286,0,0,1-.349-3.7V33.769a13.7,13.7,0,0,0-.106-1.822,1.672,1.672,0,0,0-.357-1.122,1.162,1.162,0,0,0-.763-.228h-1v8.132H37.748V21.083h4.741a2.07,2.07,0,0,1,2.184,1.724,13.456,13.456,0,0,1,.154,2.521c0,.675,0,1.374-.049,2.073a4.244,4.244,0,0,1-.284,1.4,1.971,1.971,0,0,1-1.81.976,1.888,1.888,0,0,1,1.623.748c.406.618.43,1.342.43,2.8v1.92a7.693,7.693,0,0,0,.463,3.472Zm-.276-14.638a.817.817,0,0,0-.252-.7,1.426,1.426,0,0,0-.861-.155h-1.16V28.67h1.112c.609,0,.966-.155,1.12-.813a17.3,17.3,0,0,0,.122-2.692c0-.358-.025-.732-.049-1.106Z"/><path class="cls-1" d="M53.911,36.835c-.763,2.073-3.109,2.016-3.629,2.016a4.641,4.641,0,0,1-1.5-.219,3.252,3.252,0,0,1-1.924-2.147,5.71,5.71,0,0,1-.178-1.854v-8.75c0-1.578,0-3.1,1.4-4.148a3.9,3.9,0,0,1,2.435-.813,3.731,3.731,0,0,1,2.338.7,2.964,2.964,0,0,1,.812.952c.5.87.528,1.8.528,3.765v8.449A5.888,5.888,0,0,1,53.911,36.835ZM51.857,25.677a4.265,4.265,0,0,0-.243-2.171,1.209,1.209,0,0,0-1.088-.52,1.619,1.619,0,0,0-.861.244c-.641.4-.584,1.122-.584,2.439v9.45c0,.943.146,1.846,1.364,1.846,1.526,0,1.453-1.35,1.453-2.44Z"/><path class="cls-1" d="M60.738,38.713V30.524H58.555v8.189H56.192V21.083h2.363v7.2h2.183v-7.2h2.355v17.63Z"/><path class="cls-1" d="M65.122,38.713V21.083H67.46v17.63Z"/><path class="cls-1" d="M74.109,38.713H71.316l-2.744-17.63h2.363l1.826,14.133,1.754-14.133h2.33Z"/><path class="cls-1" d="M77.941,38.713V21.083h5.91v2.2H80.319V28.45h3.15v2.2H80.352v5.839h3.5v2.228Z"/><path class="cls-1" d="M87.658,37.444a.325.325,0,0,0-.308-.341.182.182,0,0,0-.033,0h0a.382.382,0,0,0,.351-.41l0-.021a.415.415,0,0,0-.361-.462.4.4,0,0,0-.085,0h-.7v1.765h.4v-.748h.1c.308,0,.276.179.276.39a.705.705,0,0,0,.057.342h.389A2.072,2.072,0,0,1,87.658,37.444Zm-.593-.455h-.178v-.5h.178c.122,0,.2.065.2.236S87.22,36.989,87.065,36.989Z"/><path class="cls-1" d="M87.1,38.916a1.789,1.789,0,1,1,.033,0Zm0-3.252a1.423,1.423,0,1,0,1.421,1.423A1.422,1.422,0,0,0,87.1,35.664Z"/></g><path class="cls-2" d="M122.474,20.434l-14.689-8.393a1.173,1.173,0,0,0-1.052,0L92.045,20.434a1.154,1.154,0,0,0-.526.906V38.493a1.154,1.154,0,0,0,.526.906l14.688,8.394a1.18,1.18,0,0,0,1.052,0L122.474,39.4a1.157,1.157,0,0,0,.526-.906V21.34A1.157,1.157,0,0,0,122.474,20.434ZM107.121,38.917l-.433-2.927h-3.054l-.484,2.927H99.841l3.487-17.969h3.793l3.359,17.969Zm4.858-1.5h-.419v1.5h-.377v-1.5h-.418v-.3h1.214Zm1.945,1.5h-.367V37.528h0l-.346,1.389h-.359l-.329-1.389h0v1.389h-.367v-1.8h.606l.282,1.224h0l.3-1.224h.586Zm1.491-11.283a2.034,2.034,0,0,1-.114.772,1.986,1.986,0,0,1-2.011,1.151,2.169,2.169,0,0,1-2.011-1.063,1.356,1.356,0,0,1-.14-.67V26.8h1.455v.9a1.184,1.184,0,0,0,.038.367.651.651,0,0,0,.683.367.706.706,0,0,0,.367-.089.613.613,0,0,0,.266-.594V26.483a.971.971,0,0,0-.253-.835,1.233,1.233,0,0,0-.835-.2h-.3v-.986h.3a1.215,1.215,0,0,0,.835-.266.989.989,0,0,0,.2-.772v-.632c0-.089.063-.557-.367-.683a1.175,1.175,0,0,0-.278-.051.622.622,0,0,0-.62.405.9.9,0,0,0-.025.215v.873h-1.392V22.5a1.612,1.612,0,0,1,.165-.708,2.083,2.083,0,0,1,1.935-.873,1.88,1.88,0,0,1,1.885.948,1.772,1.772,0,0,1,.165.785V23.6a1.149,1.149,0,0,1-.253.9,1.5,1.5,0,0,1-.949.4,1.538,1.538,0,0,1,1.062.456,1.815,1.815,0,0,1,.19,1Z"/><polygon class="cls-2" points="104.041 33.215 106.332 33.215 105.237 25.504 104.041 33.215"/></g></svg>