<?xml version="1.0" encoding="utf-8"?>
<!-- Generator: Adobe Illustrator 21.1.0, SVG Export Plug-In . SVG Version: 6.00 Build 0)  -->
<svg version="1.1" id="Layer_1" xmlns="http://www.w3.org/2000/svg" xmlns:xlink="http://www.w3.org/1999/xlink" x="0px" y="0px"
	 viewBox="0 0 31 36" style="enable-background:new 0 0 31 36;" xml:space="preserve">
<title>corp.brand.aerohiveLogo.registered.AI_SOURCE</title>
<g id="HexagonBug">
	<path d="M15.2,0.2c0-0.1,0.2-0.2,0.3-0.2c-0.2,0-0.4,0-0.5,0.1L0.5,8.5C0.2,8.7,0,9,0,9.4v17.2c0,0.1,0,0.3,0.1,0.4L15.2,0.2z"/>
	<path d="M15.8,0.2L30.9,27c0.1-0.1,0.1-0.2,0.1-0.4V9.4c0-0.4-0.2-0.7-0.5-0.9L16,0.1C15.8,0,15.7,0,15.5,0
		C15.6,0,15.7,0.1,15.8,0.2z"/>
	<path d="M15.5,7l-12,21.2c-0.2,0.4-0.1,1,0.3,1.2L15,35.9c0.3,0.1,0.7,0.1,1,0l11.1-6.5c0.4-0.2,0.6-0.8,0.3-1.2c0,0,0,0,0,0
		L15.5,7z"/>
</g>
<g id="Networks.WORDMARK">
	<path d="M44.5-28.8v-8.8h1.2l3.6,7.7l0,0v-7.7h0.8v8.8H49l-3.6-7.8l0,0v7.8L44.5-28.8z"/>
	<path d="M59.6-37.6v0.7h-3.2v3.3h3.1v0.7h-3.1v3.5h3.3v0.7h-4.1v-8.8H59.6z"/>
	<path d="M66.1-36.9H64v-0.7h5v0.7h-2.1v8.1h-0.8V-36.9z"/>
	<path d="M77.4-37.6h1l1.8,7.7l0,0l1.9-7.7h0.8l-2.2,8.8h-1l-1.8-7.8l0,0L76-28.8h-1L73-37.6h0.8l1.8,7.7l0,0L77.4-37.6z"/>
	<path d="M90-37.7c2.6,0,2.7,2.2,2.7,4.5s0,4.5-2.7,4.5s-2.7-2.2-2.7-4.5S87.4-37.7,90-37.7z M90-29.3c1.8,0,1.9-1.6,1.9-3.9
		s0-3.9-1.9-3.9s-1.9,1.6-1.9,3.9S88.2-29.3,90-29.3z"/>
	<path d="M98.7-33.1v4.2h-0.8v-8.8h2.4c1.7,0,2.1,0.6,2.1,2.1c0,1.1-0.2,1.8-1.4,2.1l0,0c1.2,0.2,1.3,0.4,1.3,3.5
		c0,0.3,0.1,0.7,0.1,1h-0.8c-0.1-0.2-0.1-1.7-0.1-2.2s0.2-2.1-1.4-2.1L98.7-33.1z M98.7-33.7h1.3c1.2,0,1.7-0.3,1.7-1.8
		c0-1.2-0.5-1.4-1.4-1.4h-1.6V-33.7z"/>
	<path d="M107.7-28.8v-8.8h0.8v4l0,0l3.1-4h0.9l-3.3,4.1l3.4,4.7h-1l-3.2-4.5l0,0v4.5H107.7z"/>
	<path d="M121.1-35.4c0-1.1-0.3-1.7-1.5-1.7c-0.9,0-1.6,0.3-1.6,1.4c0,1.3,0.7,1.3,1.7,2s2.2,1,2.2,2.7c0.2,1.1-0.6,2.2-1.8,2.3
		c-0.2,0-0.4,0-0.6,0c-1.7,0-2.5-0.9-2.4-2.6h0.8c0,1,0.1,2,1.6,2c0.7,0.1,1.4-0.4,1.5-1.2c0-0.1,0-0.3,0-0.4c0-1.2-0.8-1.5-2.1-2.3
		c-1.7-1-1.8-1.6-1.8-2.4c0-1.5,1-2.2,2.4-2.2c1.8,0,2.2,1.1,2.2,2.4L121.1-35.4z"/>
</g>
<path d="M51.8-42.8l-0.6-4h-3.3l-0.5,4h-2.8l3.1-21.7h3.5l3.4,21.7H51.8z M49.4-60.7l-1.2,11.3h2.6L49.4-60.7z"/>
<path d="M56.1-42.8v-21.7h7.3v2.7H59v6.4h3.9v2.7H59v7.2h4.3v2.7H56.1z"/>
<path d="M71.3-42.8c-0.3-1.5-0.5-3-0.4-4.5v-1.5c0-0.8,0-1.5-0.1-2.2c0-0.5-0.2-1-0.5-1.4c-0.3-0.2-0.6-0.3-0.9-0.3h-1.2v10h-2.9
	v-21.7H70c0.4,0,0.8,0,1.1,0c1.3-0.1,2.5,0.8,2.7,2.1c0.2,1,0.2,2.1,0.2,3.1c0,0.8,0,1.7-0.1,2.5c0,0.6-0.1,1.2-0.3,1.7
	c-0.5,0.8-1.3,1.2-2.2,1.2c0.8,0,1.5,0.3,2,0.9c0.5,0.8,0.5,1.7,0.5,3.4v2.4c0,2.5,0.1,2.9,0.6,4.3L71.3-42.8z M70.9-60.8
	c0-0.5-0.1-0.7-0.3-0.9c-0.2-0.1-0.5-0.2-1.1-0.2h-1.5v6.7h1.4c0.8,0,1.2-0.2,1.4-1c0.1-1.1,0.2-2.2,0.2-3.3
	C71-59.9,71-60.4,70.9-60.8L70.9-60.8z"/>
<path d="M85.1-45.1c-0.9,2.5-3.8,2.5-4.5,2.5c-0.6,0-1.2-0.1-1.8-0.3c-1.2-0.5-2-1.4-2.4-2.6c-0.2-0.7-0.3-1.5-0.2-2.3v-10.8
	c0-1.9,0-3.8,1.7-5.1c0.9-0.6,1.9-1,3-0.9c1,0,2,0.3,2.9,0.9c0.4,0.3,0.8,0.7,1,1.2c0.6,1.1,0.7,2.2,0.7,4.6v10.3
	C85.5-46.8,85.3-46,85.1-45.1z M82.5-58.8c0.1-0.9,0-1.8-0.3-2.7c-0.3-0.4-0.8-0.7-1.3-0.6c-0.4,0-0.7,0.1-1.1,0.3
	c-0.8,0.5-0.7,1.4-0.7,3v11.6c0,1.2,0.2,2.3,1.7,2.3c1.9,0,1.8-1.7,1.8-3L82.5-58.8z"/>
<path d="M93.5-42.8v-10.1h-2.7v10.1h-2.9v-21.7h2.9v8.8h2.7v-8.8h2.9v21.7H93.5z"/>
<path d="M98.9-42.8v-21.7h2.9v21.7H98.9z"/>
<path d="M110-42.8h-3.4l-3.4-21.7h2.9l2.2,17.3l2.2-17.4h2.9L110-42.8z"/>
<path d="M114.7-42.8v-21.7h7.3v2.7h-4.3v6.4h3.9v2.7h-3.8v7.2h4.3v2.7H114.7z"/>
<path d="M126.7-44.4c0-0.2-0.2-0.4-0.4-0.4c0,0,0,0-0.1,0l0,0c0.3,0,0.5-0.3,0.4-0.5c0,0,0,0,0,0c0-0.3-0.2-0.5-0.5-0.6
	c0,0-0.1,0-0.1,0h-0.9v2.2h0.5v-0.9h0.1c0.4,0,0.3,0.2,0.3,0.5c0,0.1,0,0.3,0.1,0.4h0.5C126.7-43.9,126.7-44.2,126.7-44.4z
	 M125.9-44.9h-0.2v-0.6h0.3c0.2,0,0.3,0.1,0.3,0.3C126.2-45,126.1-44.9,125.9-44.9L125.9-44.9z"/>
<path d="M126-42.6c-1.2,0-2.2-1-2.2-2.2s1-2.2,2.2-2.2s2.2,1,2.2,2.2S127.2-42.6,126-42.6z M126-46.6c-1,0-1.8,0.8-1.8,1.8
	s0.8,1.8,1.8,1.8s1.8-0.8,1.8-1.8S126.9-46.6,126-46.6C126-46.6,126-46.6,126-46.6z"/>
<g>
	<defs>
		<rect id="SVGID_1_" x="-711.4" y="122.5" width="1662.4" height="818.5"/>
	</defs>
	<clipPath id="SVGID_2_">
		<use xlink:href="#SVGID_1_"  style="overflow:visible;"/>
	</clipPath>
	<g style="clip-path:url(#SVGID_2_);">
		
			<image style="overflow:visible;" width="2880" height="1418" xlink:href="E0C24720472ADF91.png"  transform="matrix(0.5772 0 0 0.5772 -711.3972 122.5003)">
		</image>
	</g>
</g>
<g id="HexagonBug_1_">
	<path d="M584.2,980.2c0-0.1,0.2-0.2,0.3-0.2c-0.2,0-0.4,0-0.5,0.1l-14.5,8.4c-0.3,0.2-0.5,0.5-0.5,0.9v17.2c0,0.1,0,0.3,0.1,0.4
		L584.2,980.2z"/>
	<path d="M584.8,980.2l15.1,26.7c0.1-0.1,0.1-0.2,0.1-0.4v-17.2c0-0.4-0.2-0.7-0.5-0.9l-14.5-8.4c-0.2-0.1-0.3-0.1-0.5-0.1
		C584.6,980,584.7,980.1,584.8,980.2z"/>
	<path d="M584.5,987l-12,21.2c-0.2,0.4-0.1,1,0.3,1.2l11.2,6.5c0.3,0.1,0.7,0.1,1,0l11.1-6.5c0.4-0.2,0.6-0.8,0.3-1.2c0,0,0,0,0,0
		L584.5,987z"/>
</g>
</svg>
