<?xml version="1.0" encoding="UTF-8"?>
<svg width="18px" height="18px" viewBox="0 0 18 18" version="1.1" xmlns="http://www.w3.org/2000/svg" xmlns:xlink="http://www.w3.org/1999/xlink">
    <!-- Generator: Sketch 48.2 (47327) - http://www.bohemiancoding.com/sketch -->
    <title>Group 6</title>
    <desc>Created with Sketch.</desc>
    <defs></defs>
    <g id="PacketFence---Configuration" stroke="none" stroke-width="1" fill="none" fill-rule="evenodd" transform="translate(-1011.000000, -17.000000)">
        <g id="Group-6" transform="translate(1011.000000, 17.000000)" fill="#FFFFFF">
            <g id="Fill-2105-+-Fill-2106-+-Fill-2107">
                <path d="M9,1.8 C5.0301,1.8 1.8,5.0301 1.8,9 C1.8,12.9699 5.0301,16.2 9,16.2 C12.9699,16.2 16.2,12.9699 16.2,9 C16.2,5.0301 12.9699,1.8 9,1.8 M9,18 C4.0374,18 0,13.9635 0,9 C0,4.0374 4.0374,0 9,0 C13.9626,0 18,4.0374 18,9 C18,13.9635 13.9626,18 9,18" id="Fill-2105"></path>
                <path d="M9.9,11.7 L8.1,11.7 L8.1,9 L9,9 C9.9927,9 10.8,8.1927 10.8,7.2 C10.8,6.2064 9.9927,5.4 9,5.4 C8.0073,5.4 7.2,6.2064 7.2,7.2 L5.4,7.2 C5.4,5.2146 7.0146,3.6 9,3.6 C10.9854,3.6 12.6,5.2146 12.6,7.2 C12.6,8.874 11.4507,10.2852 9.9,10.6866 L9.9,11.7 Z" id="Fill-2106"></path>
                <path d="M10.125,13.5 C10.125,14.121 9.621,14.625 9,14.625 C8.379,14.625 7.875,14.121 7.875,13.5 C7.875,12.879 8.379,12.375 9,12.375 C9.621,12.375 10.125,12.879 10.125,13.5" id="Fill-2107"></path>
            </g>
        </g>
    </g>
</svg>