<?xml version="1.0" encoding="UTF-8"?>
<svg width="234px" height="213px" viewBox="0 0 234 213" version="1.1" xmlns="http://www.w3.org/2000/svg" xmlns:xlink="http://www.w3.org/1999/xlink">
    <!-- Generator: Sketch 50 (54983) - http://www.bohemiancoding.com/sketch -->
    <title>Group 2</title>
    <desc>Created with Sketch.</desc>
    <defs></defs>
    <g id="Page-1" stroke="none" stroke-width="1" fill="none" fill-rule="evenodd">
        <g id="A3-Setup---Admin-User" transform="translate(-36.000000, -436.000000)" fill="#F4F6F9">
            <g id="Group-2" transform="translate(36.000000, 436.000000)">
                <path d="M117,29.25 C100.868625,29.25 87.75,42.354 87.75,58.5 C87.75,74.631375 100.868625,87.75 117,87.75 C133.131375,87.75 146.25,74.631375 146.25,58.5 C146.25,42.354 133.131375,29.25 117,29.25 M117,117 C84.73725,117 58.5,90.76275 58.5,58.5 C58.5,26.23725 84.73725,0 117,0 C149.26275,0 175.5,26.23725 175.5,58.5 C175.5,90.76275 149.26275,117 117,117" id="Fill-3262"></path>
                <path d="M31.575375,202.660714 L202.43925,202.660714 C193.6935,174.33 160.992,155.651786 117,155.651786 C73.008,155.651786 40.321125,174.33 31.575375,202.660714 L31.575375,202.660714 Z M234,234 L0,234 L0,218.330357 C0,162.969509 48.11625,124.3125 117,124.3125 C185.898375,124.3125 234,162.969509 234,218.330357 L234,234 Z" id="Fill-3263"></path>
            </g>
        </g>
    </g>
</svg>