<?xml version="1.0" encoding="UTF-8"?>
<svg width="234px" height="205px" viewBox="0 0 234 205" version="1.1" xmlns="http://www.w3.org/2000/svg" xmlns:xlink="http://www.w3.org/1999/xlink">
    <!-- Generator: Sketch 50 (54983) - http://www.bohemiancoding.com/sketch -->
    <title>Fill 2021</title>
    <desc>Created with Sketch.</desc>
    <defs></defs>
    <g id="Page-1" stroke="none" stroke-width="1" fill="none" fill-rule="evenodd">
        <g id="A3-Setup---Cluster-Networking" transform="translate(-36.000000, -444.000000)" fill="#F4F6F9">
            <path d="M234.616935,654.41129 C228.118246,654.41129 222.822581,649.115625 222.822581,642.616935 C222.822581,636.118246 228.118246,630.822581 234.616935,630.822581 C241.115625,630.822581 246.41129,636.118246 246.41129,642.616935 C246.41129,649.115625 241.115625,654.41129 234.616935,654.41129 M153.471774,654.41129 C146.973085,654.41129 141.677419,649.115625 141.677419,642.616935 C141.677419,636.118246 146.973085,630.822581 153.471774,630.822581 C159.970464,630.822581 165.266129,636.118246 165.266129,642.616935 C165.266129,649.115625 159.970464,654.41129 153.471774,654.41129 M71.3830645,654.41129 C64.884375,654.41129 59.5887097,649.115625 59.5887097,642.616935 C59.5887097,636.118246 64.884375,630.822581 71.3830645,630.822581 C77.881754,630.822581 83.1774194,636.118246 83.1774194,642.616935 C83.1774194,649.115625 77.881754,654.41129 71.3830645,654.41129 M135.072581,485.044355 C135.072581,475.420476 142.904347,467.58871 152.528226,467.58871 C162.152105,467.58871 169.983871,475.420476 169.983871,485.044355 C169.983871,494.668234 162.152105,502.5 152.528226,502.5 C142.904347,502.5 135.072581,494.668234 135.072581,485.044355 M246.6,609.9528 L246.6,584.4 C246.6,565.0482 230.8518,549.3 211.5,549.3 L164.7,549.3 L164.7,523.9929 C181.548,518.9151 193.95,503.436 193.95,484.95 C193.95,462.369 175.581,444 153,444 C130.419,444 112.05,462.369 112.05,484.95 C112.05,503.436 124.452,518.9151 141.3,523.9929 L141.3,549.3 L94.5,549.3 C75.1482,549.3 59.4,565.0482 59.4,584.4 L59.4,609.9528 C45.8046,614.8083 36,627.6666 36,642.9 C36,662.2518 51.7482,678 71.1,678 C90.4518,678 106.2,662.2518 106.2,642.9 C106.2,627.6666 96.3954,614.8083 82.8,609.9528 L82.8,584.4 C82.8,577.9533 88.0533,572.7 94.5,572.7 L141.3,572.7 L141.3,609.9528 C127.7046,614.8083 117.9,627.6666 117.9,642.9 C117.9,662.2518 133.6482,678 153,678 C172.3518,678 188.1,662.2518 188.1,642.9 C188.1,627.6666 178.2954,614.8083 164.7,609.9528 L164.7,572.7 L211.5,572.7 C217.9467,572.7 223.2,577.9533 223.2,584.4 L223.2,609.9528 C209.6046,614.8083 199.8,627.6666 199.8,642.9 C199.8,662.2518 215.5482,678 234.9,678 C254.2518,678 270,662.2518 270,642.9 C270,627.6666 260.1954,614.8083 246.6,609.9528" id="Fill-2021"></path>
        </g>
    </g>
</svg>