<?xml version="1.0" encoding="UTF-8"?>
<svg width="16px" height="16px" viewBox="0 0 16 16" version="1.1" xmlns="http://www.w3.org/2000/svg" xmlns:xlink="http://www.w3.org/1999/xlink">
    <!-- Generator: Sketch 50 (54983) - http://www.bohemiancoding.com/sketch -->
    <title>Fill 778 + Fill 779</title>
    <desc>Created with Sketch.</desc>
    <defs></defs>
    <g id="EULA" stroke="none" stroke-width="1" fill="none" fill-rule="evenodd">
        <g id="A3-Setup---Networks---VLAN" transform="translate(-1129.000000, -364.000000)" fill="#54698D">
            <g id="Group-4" transform="translate(1129.000000, 364.000000)">
                <g id="Fill-778-+-Fill-779">
                    <path d="M8,14.4 C4.4712,14.4 1.6,11.5288 1.6,8 C1.6,4.4712 4.4712,1.6 8,1.6 C11.5288,1.6 14.4,4.4712 14.4,8 C14.4,11.5288 11.5288,14.4 8,14.4 M8,0 C3.5888,0 0,3.5888 0,8 C0,12.4112 3.5888,16 8,16 C12.4112,16 16,12.4112 16,8 C16,3.5888 12.4112,0 8,0" id="Fill-778"></path>
                    <polygon id="Fill-779" points="9.8 5 7.9656 6.8344 6.1312 5 5 6.1312 6.8344 7.9656 5 9.8 6.1312 10.9312 7.9656 9.0968 9.8 10.9312 10.9312 9.8 9.0968 7.9656 10.9312 6.1312"></polygon>
                </g>
            </g>
        </g>
    </g>
</svg>