<?xml version="1.0" encoding="UTF-8"?>
<svg width="234px" height="153px" viewBox="0 0 234 153" version="1.1" xmlns="http://www.w3.org/2000/svg" xmlns:xlink="http://www.w3.org/1999/xlink">
    <!-- Generator: Sketch 50 (54983) - http://www.bohemiancoding.com/sketch -->
    <title>Fill 705</title>
    <desc>Created with Sketch.</desc>
    <defs></defs>
    <g id="Page-1" stroke="none" stroke-width="1" fill="none" fill-rule="evenodd">
        <g id="A3-Setup---Cloud-Integration" transform="translate(-36.000000, -496.000000)" fill="#F4F6F9">
            <g id="Fill-705" transform="translate(36.000000, 496.000000)">
                <path d="M58.5008694,70.2010433 C39.1487818,70.2010433 23.4003478,85.9494773 23.4003478,105.301565 C23.4003478,124.653653 39.1487818,140.402087 58.5008694,140.402087 L152.10226,140.402087 C184.35964,140.402087 210.60313,114.158597 210.60313,81.9012172 C210.60313,49.6438378 184.35964,23.4003478 152.10226,23.4003478 C124.758954,23.4003478 101.346906,42.0036242 95.1692144,68.6449202 C94.3151017,72.3538753 91.6942627,75.4076207 88.1725104,76.8350419 C84.650758,78.2624631 80.6375984,77.8997577 77.4317508,75.8288269 C71.7220659,72.1549723 65.1699685,70.2010433 58.5008694,70.2010433 M152.10226,163.802434 L58.5008694,163.802434 C26.24349,163.802434 0,137.558944 0,105.301565 C0,73.0441856 26.24349,46.8006955 58.5008694,46.8006955 C64.7370621,46.8006955 70.9030537,47.8069105 76.776541,49.7608395 C89.4127288,19.8785954 118.651463,0 152.10226,0 C197.264932,0 234.003478,36.738546 234.003478,81.9012172 C234.003478,127.063888 197.264932,163.802434 152.10226,163.802434"></path>
            </g>
        </g>
    </g>
</svg>