<?xml version="1.0" encoding="UTF-8"?>
<svg width="36px" height="35px" viewBox="0 0 36 35" version="1.1" xmlns="http://www.w3.org/2000/svg" xmlns:xlink="http://www.w3.org/1999/xlink">
    <!-- Generator: Sketch 50 (54983) - http://www.bohemiancoding.com/sketch -->
    <title>Group</title>
    <desc>Created with Sketch.</desc>
    <defs></defs>
    <g id="Page-1" stroke="none" stroke-width="1" fill="none" fill-rule="evenodd">
        <g id="A3-Setup---Licensing" transform="translate(-929.000000, -150.000000)" fill="#FFFFFF">
            <g id="Group" transform="translate(929.000000, 150.000000)">
                <path d="M9.13499885,30.5958131 C6.10766023,30.5958131 3.65399954,28.1421524 3.65399954,25.1148138 C3.65399954,22.0874751 6.10766023,19.6338145 9.13499885,19.6338145 C12.1623375,19.6338145 14.6159982,22.0874751 14.6159982,25.1148138 C14.6159982,28.1421524 12.1623375,30.5958131 9.13499885,30.5958131 L9.13499885,30.5958131 Z M33.4194798,12.9871893 L36.0028575,10.4038116 L30.8379291,5.23705628 L33.4194798,2.6555056 L30.8361021,0.0721279311 L13.6787473,17.2331368 L13.6824013,17.2367908 C12.3395564,16.4584889 10.7993956,15.9798149 9.13499885,15.9798149 C4.09065248,15.9798149 0,20.0704674 0,25.1148138 C0,30.1591601 4.09065248,34.2498126 9.13499885,34.2498126 C14.1793452,34.2498126 18.2699977,30.1591601 18.2699977,25.1148138 C18.2699977,23.059439 17.5666028,21.1831103 16.4192469,19.6575655 L23.0859691,12.9926703 L28.2508974,18.1575986 L30.8361021,15.576048 L25.6711738,10.4056386 L28.2545514,7.82226095 L33.4194798,12.9871893 Z" id="Fill-3801"></path>
            </g>
        </g>
    </g>
</svg>