<?xml version="1.0" standalone="no"?>
<svg version="1.1" preserveAspectRatio="xMidYMid meet" viewBox="0 0 66 66" class="ng-element" data-id="1cbcce69f89751f220225cde3aba55ac" style="mix-blend-mode: normal; overflow: visible; width: 66px; height: 66px; filter: none;" xmlns="http://www.w3.org/2000/svg"><title>Fill 107347A65AA3-30FC-4A8F-98C4-08C375E356F0</title><desc>Created with Sketch.</desc><defs/><g id="Page-1" stroke="none" stroke-width="1" fill="none" fill-rule="evenodd">
        <g id="A3-Setup" transform="translate(-927.000000, -157.000000)" fill="#FFFFFF">
            <g id="Group-24" transform="translate(927.000000, 157.000000)">
                <path d="M36.3,39.6 C30.8418,39.6 26.4,35.1582 26.4,29.7 C26.4,24.2418 30.8418,19.8 36.3,19.8 C41.7582,19.8 46.2,24.2418 46.2,29.7 C46.2,35.1582 41.7582,39.6 36.3,39.6 M59.4,39.6 C58.4265,39.6 57.5091,39.8211 56.6808,40.2006 L51.3513,36.3924 C52.2654,34.3431 52.8,32.0859 52.8,29.7 C52.8,26.3406 51.7803,23.2254 50.0511,20.6151 L57.7104,12.9558 C58.2516,13.0977 58.8126,13.2 59.4,13.2 C63.0432,13.2 66,10.2498 66,6.6 C66,2.9601 63.0432,0 59.4,0 C55.7535,0 52.8,2.9601 52.8,6.6 C52.8,7.1874 52.9023,7.7484 53.0442,8.2896 L45.3849,15.9489 C42.7746,14.2197 39.6594,13.2 36.3,13.2 C31.3005,13.2 26.8686,15.4803 23.8425,19.0047 L13.1901,13.0845 C13.1274,9.4974 10.2036,6.6 6.6,6.6 C2.9535,6.6 0,9.5601 0,13.2 C0,16.8498 2.9535,19.8 6.6,19.8 C7.8375,19.8 8.9793,19.4403 9.9693,18.8463 L20.6349,24.7731 C20.1432,26.3373 19.8,27.9741 19.8,29.7 C19.8,33.0594 20.8197,36.1746 22.5489,38.7849 L8.2896,53.0442 C7.7451,52.9023 7.1874,52.8 6.6,52.8 C2.9535,52.8 0,55.7601 0,59.4 C0,63.0498 2.9535,66 6.6,66 C10.2432,66 13.2,63.0498 13.2,59.4 C13.2,58.8126 13.0977,58.2549 12.9558,57.7104 L27.2151,43.4511 C28.9443,44.5995 30.8979,45.4377 33,45.8667 L33,53.7141 C31.0332,54.8592 29.7,56.9646 29.7,59.4 C29.7,63.0498 32.6535,66 36.3,66 C39.9432,66 42.9,63.0498 42.9,59.4 C42.9,56.9679 41.5635,54.8625 39.6,53.7174 L39.6,45.8667 C42.6228,45.2496 45.3123,43.7745 47.4903,41.7483 L52.8627,45.5862 C52.8429,45.7908 52.8,45.9888 52.8,46.2 C52.8,49.8498 55.7535,52.8 59.4,52.8 C63.0432,52.8 66,49.8498 66,46.2 C66,42.5601 63.0432,39.6 59.4,39.6" id="Fill-1073" vector-effect="non-scaling-stroke"/>
            </g>
        </g>
    </g></svg>
