<?xml version="1.0" encoding="UTF-8"?>
<svg width="234px" height="215px" viewBox="0 0 234 215" version="1.1" xmlns="http://www.w3.org/2000/svg" xmlns:xlink="http://www.w3.org/1999/xlink">
    <!-- Generator: Sketch 50 (54983) - http://www.bohemiancoding.com/sketch -->
    <title>Group 2</title>
    <desc>Created with Sketch.</desc>
    <defs></defs>
    <g id="Page-1" stroke="none" stroke-width="1" fill="none" fill-rule="evenodd">
        <g id="A3-Setup---Join-cluster" transform="translate(-36.000000, -434.000000)" fill="#F4F6F9">
            <g id="Group-2" transform="translate(36.000000, 434.000000)">
                <path d="M128.7,140.4 C109.3482,140.4 93.6,124.6518 93.6,105.3 C93.6,85.9482 109.3482,70.2 128.7,70.2 C148.0518,70.2 163.8,85.9482 163.8,105.3 C163.8,124.6518 148.0518,140.4 128.7,140.4 M210.6,140.4 C207.1485,140.4 203.8959,141.1839 200.9592,142.5294 L182.0637,129.0276 C185.3046,121.7619 187.2,113.7591 187.2,105.3 C187.2,93.3894 183.5847,82.3446 177.4539,73.0899 L204.6096,45.9342 C206.5284,46.4373 208.5174,46.8 210.6,46.8 C223.5168,46.8 234,36.3402 234,23.4 C234,10.4949 223.5168,0 210.6,0 C197.6715,0 187.2,10.4949 187.2,23.4 C187.2,25.4826 187.5627,27.4716 188.0658,29.3904 L160.9101,56.5461 C151.6554,50.4153 140.6106,46.8 128.7,46.8 C110.9745,46.8 95.2614,54.8847 84.5325,67.3803 L46.7649,46.3905 C46.5426,33.6726 36.1764,23.4 23.4,23.4 C10.4715,23.4 0,33.8949 0,46.8 C0,59.7402 10.4715,70.2 23.4,70.2 C27.7875,70.2 31.8357,68.9247 35.3457,66.8187 L73.1601,87.8319 C71.4168,93.3777 70.2,99.1809 70.2,105.3 C70.2,117.2106 73.8153,128.2554 79.9461,137.5101 L29.3904,188.0658 C27.4599,187.5627 25.4826,187.2 23.4,187.2 C10.4715,187.2 0,197.6949 0,210.6 C0,223.5402 10.4715,234 23.4,234 C36.3168,234 46.8,223.5402 46.8,210.6 C46.8,208.5174 46.4373,206.5401 45.9342,204.6096 L96.4899,154.0539 C102.6207,158.1255 109.5471,161.0973 117,162.6183 L117,190.4409 C110.0268,194.5008 105.3,201.9654 105.3,210.6 C105.3,223.5402 115.7715,234 128.7,234 C141.6168,234 152.1,223.5402 152.1,210.6 C152.1,201.9771 147.3615,194.5125 140.4,190.4526 L140.4,162.6183 C151.1172,160.4304 160.6527,155.2005 168.3747,148.0167 L187.4223,161.6238 C187.3521,162.3492 187.2,163.0512 187.2,163.8 C187.2,176.7402 197.6715,187.2 210.6,187.2 C223.5168,187.2 234,176.7402 234,163.8 C234,150.8949 223.5168,140.4 210.6,140.4" id="Fill-1073"></path>
            </g>
        </g>
    </g>
</svg>