<?xml version="1.0" encoding="UTF-8"?>
<svg width="234px" height="204px" viewBox="0 0 234 204" version="1.1" xmlns="http://www.w3.org/2000/svg" xmlns:xlink="http://www.w3.org/1999/xlink">
    <!-- Generator: Sketch 50 (54983) - http://www.bohemiancoding.com/sketch -->
    <title>Group</title>
    <desc>Created with Sketch.</desc>
    <defs></defs>
    <g id="Page-1" stroke="none" stroke-width="1" fill="none" fill-rule="evenodd">
        <g id="A3-Setup---Licensing" transform="translate(-36.000000, -445.000000)" fill="#F4F6F9">
            <g id="Group" transform="translate(36.000000, 445.000000)">
                <path d="M59.3734964,198.859401 C39.6971197,198.859401 23.7493986,182.91168 23.7493986,163.235303 C23.7493986,143.558926 39.6971197,127.611205 59.3734964,127.611205 C79.0498731,127.611205 94.9975942,143.558926 94.9975942,163.235303 C94.9975942,182.91168 79.0498731,198.859401 59.3734964,198.859401 L59.3734964,198.859401 Z M217.211999,84.4110492 L234.002824,67.6202244 L200.433049,34.0385749 L217.211999,17.2596248 L200.421174,0.4688 L88.9058735,112.00785 L88.9296229,112.0316 C80.2017189,106.972978 70.1913474,103.861807 59.3734964,103.861807 C26.5874517,103.861807 0,130.449258 0,163.235303 C0,196.021348 26.5874517,222.608799 59.3734964,222.608799 C92.1595411,222.608799 118.746993,196.021348 118.746993,163.235303 C118.746993,149.876266 114.175234,137.68095 106.717922,127.765576 L150.0487,84.4466733 L183.618475,118.016448 L200.421174,101.237498 L166.8514,67.6320991 L183.642224,50.8412743 L217.211999,84.4110492 Z" id="Fill-3801"></path>
            </g>
        </g>
    </g>
</svg>