<?xml version="1.0" encoding="UTF-8"?>
<svg width="56px" height="66px" viewBox="0 0 56 66" version="1.1" xmlns="http://www.w3.org/2000/svg" xmlns:xlink="http://www.w3.org/1999/xlink">
    <!-- Generator: Sketch 50 (54983) - http://www.bohemiancoding.com/sketch -->
    <title>Group 22</title>
    <desc>Created with Sketch.</desc>
    <defs></defs>
    <g id="EULA" stroke="none" stroke-width="1" fill="none" fill-rule="evenodd">
        <g id="A3-Setup" transform="translate(-297.000000, -157.000000)" fill="#FFFFFF">
            <g id="Group-22" transform="translate(297.000000, 157.000000)">
                <path d="M27.7894737,41.6842105 C30.6656842,41.6842105 33,39.3498947 33,36.4736842 C33,33.5974737 30.6656842,31.2631579 27.7894737,31.2631579 C24.9132632,31.2631579 22.5789474,33.5974737 22.5789474,36.4736842 C22.5789474,39.3498947 24.9132632,41.6842105 27.7894737,41.6842105" id="Fill-1592"></path>
                <path d="M48.6315789,27.7894737 C48.6315789,39.2838947 39.2838947,48.6315789 27.7894737,48.6315789 C16.2950526,48.6315789 6.94736842,39.2838947 6.94736842,27.7894737 L6.94736842,24.3157895 L48.6315789,24.3157895 L48.6315789,27.7894737 Z M48.6315789,17.3684211 L45.1578947,17.3684211 L45.1578947,0 L38.2105263,0 L38.2105263,17.3684211 L17.3684211,17.3684211 L17.3684211,0 L10.4210526,0 L10.4210526,17.3684211 L6.94736842,17.3684211 C3.11589474,17.3684211 0,20.4843158 0,24.3157895 L0,27.7894737 C0,41.9343158 10.6294737,53.6197895 24.3157895,55.3392632 L24.3157895,66 L31.2631579,66 L31.2631579,55.3392632 C44.9494737,53.6197895 55.5789474,41.9343158 55.5789474,27.7894737 L55.5789474,24.3157895 C55.5789474,20.4843158 52.4630526,17.3684211 48.6315789,17.3684211 L48.6315789,17.3684211 Z" id="Fill-1593"></path>
                <polygon id="Fill-1594" points="31.2631579 0 24.3157895 0 24.3157895 13.8947368 31.2631579 13.8947368"></polygon>
            </g>
        </g>
    </g>
</svg>