<?xml version="1.0" encoding="UTF-8"?>
<svg width="36px" height="35px" viewBox="0 0 36 35" version="1.1" xmlns="http://www.w3.org/2000/svg" xmlns:xlink="http://www.w3.org/1999/xlink">
    <!-- Generator: Sketch 50 (54983) - http://www.bohemiancoding.com/sketch -->
    <title>Group</title>
    <desc>Created with Sketch.</desc>
    <defs></defs>
    <g id="Page-1" stroke="none" stroke-width="1" fill="none" fill-rule="evenodd">
        <g id="A3-Setup---Licensing" transform="translate(-530.000000, -151.000000)" fill="#FFFFFF">
            <g id="Group" transform="translate(530.000000, 151.000000)">
                <path d="M27.8152386,3.27238101 L27.8152386,0 L24.5428576,0 L24.5428576,9.81714303 L27.8152386,9.81714303 L27.8152386,6.54476202 L32.7238101,6.54476202 L32.7238101,31.0876196 L3.27238101,31.0876196 L3.27238101,6.54476202 L6.54476202,6.54476202 L6.54476202,3.27238101 L3.27238101,3.27238101 C1.46602669,3.27238101 0,4.7384077 0,6.54476202 L0,31.0876196 C0,32.8939739 1.46602669,34.3600006 3.27238101,34.3600006 L32.7238101,34.3600006 C34.5301644,34.3600006 35.9961911,32.8939739 35.9961911,31.0876196 L35.9961911,6.54476202 C35.9961911,4.7384077 34.5301644,3.27238101 32.7238101,3.27238101 L27.8152386,3.27238101 Z" id="Fill-1704"></path>
                <polygon id="Fill-1705" points="11.4533335 6.54476202 22.9066671 6.54476202 22.9066671 3.27238101 11.4533335 3.27238101 11.4533335 0 8.18095253 0 8.18095253 9.81714303 11.4533335 9.81714303"></polygon>
                <polygon id="Fill-1706" points="13.089524 13.089524 6.54476202 13.089524 6.54476202 19.6342861 13.089524 19.6342861"></polygon>
                <polygon id="Fill-1707" points="21.2704766 13.089524 14.7257145 13.089524 14.7257145 19.6342861 21.2704766 19.6342861"></polygon>
                <polygon id="Fill-1708" points="22.9066671 19.6342861 29.4514291 19.6342861 29.4514291 13.089524 22.9066671 13.089524"></polygon>
                <polygon id="Fill-1709" points="6.54476202 27.8152386 13.089524 27.8152386 13.089524 21.2704766 6.54476202 21.2704766"></polygon>
                <polygon id="Fill-1710" points="14.7257145 27.8152386 21.2704766 27.8152386 21.2704766 21.2704766 14.7257145 21.2704766"></polygon>
            </g>
        </g>
    </g>
</svg>