<svg id="Layer_1" data-name="Layer 1" xmlns="http://www.w3.org/2000/svg" viewBox="0 0 156.07 102.91"><defs><style>.cls-1{fill:none;stroke-width:2px;}.cls-1,.cls-2,.cls-3{stroke:#000;stroke-miterlimit:10;}.cls-2{fill:#fff;stroke-width:3px;}</style></defs><title>Artboard 1</title><line class="cls-1" x1="120.5" y1="83.51" x2="24.5" y2="83.51"/><rect class="cls-2" x="56.43" y="1.5" width="37" height="37" rx="1.67" ry="1.67"/><g id="HexagonBug"><path d="M74.71,6.8c0-.07.15-.15.22-.15a.56.56,0,0,0-.37.07L63.8,13a.78.78,0,0,0-.37.67V26.39a.45.45,0,0,0,.07.3Z"/><path d="M75.15,6.8l11.2,19.88c.07-.07.07-.15.07-.3V13.63a.78.78,0,0,0-.37-.67L75.3,6.73a.67.67,0,0,0-.37-.07C75,6.65,75.08,6.73,75.15,6.8Z"/><path d="M74.93,11.85,66,27.58a.69.69,0,0,0,.22.89l8.31,4.82a1.26,1.26,0,0,0,.74,0l8.24-4.82a.62.62,0,0,0,.22-.89h0Z"/></g><line class="cls-1" x1="74.93" y1="37.51" x2="74.93" y2="64.51"/><rect class="cls-2" x="56.43" y="64.41" width="37" height="37" rx="1.67" ry="1.67"/><g id="Line_Icons" data-name="Line Icons"><path class="cls-3" d="M82.79,81.64,86.43,78l-3.64-3.64-1.38,1.38L82.7,77H80.14c-2.95,0-4.82,2.06-6.39,4.23C72.18,79.08,70.31,77,67.36,77H63.43v2h3.93c2.26,0,3.74,1.87,5.21,3.93-1.47,2.06-2.95,3.93-5.21,3.93H63.43v2h3.93c2.95,0,4.82-2.06,6.39-4.23,1.57,2.16,3.44,4.23,6.39,4.23H82.7l-1.28,1.28,1.38,1.38,3.64-3.64-3.64-3.64-1.38,1.38,1.28,1.28H80.14c-2.26,0-3.74-1.87-5.21-3.93C76.41,80.85,77.88,79,80.14,79H82.7l-1.28,1.28Z"/></g><g id="Line_Icons-2" data-name="Line Icons"><path d="M143.07,95.24H128.21a9.29,9.29,0,1,1,0-18.57,8.41,8.41,0,0,1,3,.56,12.56,12.56,0,0,1,11.89-8,13,13,0,0,1,0,26ZM128.21,80.38a5.57,5.57,0,1,0,0,11.14h14.86a9.29,9.29,0,1,0,0-18.57A9.49,9.49,0,0,0,134,80.2c0,.56-.56.93-1.11,1.3a1.81,1.81,0,0,1-1.67-.19A5.61,5.61,0,0,0,128.21,80.38Z"/></g><path d="M29.45,86.89h-3.1V85.34a4.57,4.57,0,0,0-4.65-4.65H17.05v-3.1h3.1A1.46,1.46,0,0,0,21.7,76V68.29a1.46,1.46,0,0,0-1.55-1.55h-9.3A1.46,1.46,0,0,0,9.3,68.29V76a1.46,1.46,0,0,0,1.55,1.55H14v3.1H9.3a4.57,4.57,0,0,0-4.65,4.65v1.55H1.55A1.46,1.46,0,0,0,0,88.44v7.75a1.46,1.46,0,0,0,1.55,1.55h9.3a1.46,1.46,0,0,0,1.55-1.55V88.44a1.46,1.46,0,0,0-1.55-1.55H7.75V85.34A1.46,1.46,0,0,1,9.3,83.79H21.7a1.46,1.46,0,0,1,1.55,1.55v1.55h-3.1a1.46,1.46,0,0,0-1.55,1.55v7.75a1.46,1.46,0,0,0,1.55,1.55h9.3A1.46,1.46,0,0,0,31,96.19V88.44A1.46,1.46,0,0,0,29.45,86.89Zm-17-12.4V69.84h6.2v4.65ZM9.3,94.64H3.1V90H9.3Zm18.6,0H21.7V90h6.2Z"/></svg>